<svg width="64" height="64" viewBox="0 0 64 64" fill="none" xmlns="http://www.w3.org/2000/svg">
<path d="M19 32.755H45V28.855H19V32.755ZM32 57C28.3167 57 24.8933 56.3392 21.73 55.0175C18.5667 53.6958 15.815 51.865 13.475 49.525C11.135 47.185 9.30417 44.4333 7.9825 41.27C6.66083 38.1067 6 34.6833 6 31C6 27.36 6.66083 23.9583 7.9825 20.795C9.30417 17.6317 11.135 14.88 13.475 12.54C15.815 10.2 18.5667 8.35833 21.73 7.015C24.8933 5.67167 28.3167 5 32 5C35.64 5 39.0417 5.67167 42.205 7.015C45.3683 8.35833 48.12 10.2 50.46 12.54C52.8 14.88 54.6417 17.6317 55.985 20.795C57.3283 23.9583 58 27.36 58 31C58 34.6833 57.3283 38.1067 55.985 41.27C54.6417 44.4333 52.8 47.185 50.46 49.525C48.12 51.865 45.3683 53.6958 42.205 55.0175C39.0417 56.3392 35.64 57 32 57ZM32 53.1C38.2833 53.1 43.5375 50.9875 47.7625 46.7625C51.9875 42.5375 54.1 37.2833 54.1 31C54.1 24.7167 51.9875 19.4625 47.7625 15.2375C43.5375 11.0125 38.2833 8.9 32 8.9C25.7167 8.9 20.4625 11.0125 16.2375 15.2375C12.0125 19.4625 9.9 24.7167 9.9 31C9.9 37.2833 12.0125 42.5375 16.2375 46.7625C20.4625 50.9875 25.7167 53.1 32 53.1Z" fill="#323238"/>
</svg>
