<svg width="64" height="64" viewBox="0 0 64 64" fill="none" xmlns="http://www.w3.org/2000/svg">
<path d="M30.245 44.25H34.145V33.6675H45V29.8425H34.145V18.75H30.245V29.8425H19V33.6675H30.245V44.25ZM32 57C28.3167 57 24.8933 56.3519 21.73 55.0556C18.5667 53.7594 15.815 51.9638 13.475 49.6688C11.135 47.3738 9.30417 44.675 7.9825 41.5725C6.66083 38.47 6 35.1125 6 31.5C6 27.93 6.66083 24.5938 7.9825 21.4913C9.30417 18.3888 11.135 15.69 13.475 13.395C15.815 11.1 18.5667 9.29375 21.73 7.97625C24.8933 6.65875 28.3167 6 32 6C35.64 6 39.0417 6.65875 42.205 7.97625C45.3683 9.29375 48.12 11.1 50.46 13.395C52.8 15.69 54.6417 18.3888 55.985 21.4913C57.3283 24.5938 58 27.93 58 31.5C58 35.1125 57.3283 38.47 55.985 41.5725C54.6417 44.675 52.8 47.3738 50.46 49.6688C48.12 51.9638 45.3683 53.7594 42.205 55.0556C39.0417 56.3519 35.64 57 32 57ZM32 53.175C38.0667 53.175 43.2667 51.05 47.6 46.8C51.9333 42.55 54.1 37.45 54.1 31.5C54.1 25.55 51.9333 20.45 47.6 16.2C43.2667 11.95 38.0667 9.825 32 9.825C25.9333 9.825 20.7333 11.95 16.4 16.2C12.0667 20.45 9.9 25.55 9.9 31.5C9.9 37.45 12.0667 42.55 16.4 46.8C20.7333 51.05 25.9333 53.175 32 53.175Z" fill="#323238"/>
</svg>
